<svg width="31" height="27" viewBox="0 0 31 27" fill="none" xmlns="http://www.w3.org/2000/svg">
<path d="M15.2462 2.34345C13.4919 0.747552 11.1929 -0.0905021 8.83867 0.00776012C6.48443 0.106022 4.26102 1.13284 2.64192 2.86954C1.02282 4.60624 0.135959 6.9156 0.170207 9.30583C0.204454 11.6961 1.1571 13.9783 2.82527 15.6665L13.1155 26.1048C13.6806 26.678 14.4471 27 15.2462 27C16.0453 27 16.8117 26.678 17.3768 26.1048L27.6671 15.6665C29.3352 13.9783 30.2879 11.6961 30.3221 9.30583C30.3564 6.9156 29.4695 4.60624 27.8504 2.86954C26.2313 1.13284 24.0079 0.106022 21.6537 0.00776012C19.2994 -0.0905021 17.0004 0.747552 15.2462 2.34345ZM13.4802 4.85672L14.1808 5.56606C14.4634 5.85265 14.8466 6.01365 15.2462 6.01365C15.6457 6.01365 16.0289 5.85265 16.3115 5.56606L17.0122 4.85672C17.5682 4.27267 18.2333 3.80682 18.9686 3.48634C19.704 3.16586 20.4949 2.99717 21.2952 2.99011C22.0955 2.98306 22.8892 3.13778 23.63 3.44524C24.3707 3.75271 25.0437 4.20677 25.6096 4.78092C26.1755 5.35508 26.6231 6.03783 26.9261 6.78934C27.2292 7.54085 27.3817 8.34607 27.3747 9.15802C27.3678 9.96996 27.2015 10.7724 26.8856 11.5184C26.5697 12.2645 26.1106 12.9392 25.5349 13.5033L15.2462 23.9432L4.95746 13.5033C3.85952 12.35 3.252 10.8054 3.26573 9.20203C3.27946 7.5987 3.91336 6.06498 5.03088 4.93121C6.1484 3.79744 7.66014 3.15433 9.2405 3.1404C10.8209 3.12646 12.3434 3.74282 13.4802 4.85672Z" fill="#838383"/>
</svg>
